# xmcd CD database file
# Copyright (C) 1993-1997  Ti Kan
#
# Track frame offsets:
#	150
#	13650
#	31697
#	48342
#	63410
#	78905
#	104785
#	120410
#	136435
#	150622
#	166072
#	190675
#	208112
#	223322
#
# Disc length: 3301 seconds
#
# Revision: 1
# Processed by: cddbd v1.4b41PL1 Copyright (c) Steve Scherf et al.
# Submitted via: xmcd 2.1 PL2
#
DISCID=bc0ce30e
DTITLE=B. B. and The Blues Shacks - Jive Talk, Slow Walk
DYEAR=1900
DGENRE=
TTITLE0=Just A Little Bit More
TTITLE1=Little Mae
TTITLE2=I'm Gonna Leave
TTITLE3=Sweetest Thing In Town
TTITLE4=The Slow Walk
TTITLE5=Sad Sad Days
TTITLE6=Jump, Jive An' Wail
TTITLE7=One More Chance With You
TTITLE8=Stranger's Hands
TTITLE9=That Ain't Right
TTITLE10=Fancied Nancy
TTITLE11=Down The Floor
TTITLE12=Nothing But A Pain
TTITLE13=Butterscotch
EXTD=
EXTT0=
EXTT1=
EXTT2=
EXTT3=
EXTT4=
EXTT5=
EXTT6=
EXTT7=
EXTT8=
EXTT9=
EXTT10=
EXTT11=
EXTT12=
EXTT13=
PLAYORDER=
